<svg xmlns="http://www.w3.org/2000/svg" id="Layer_1" xmlns:xlink="http://www.w3.org/1999/xlink" viewBox="0 0 49 63"><style>.st0{fill:#FFF233;} .st1{fill:#FFFFFF;} .st2{clip-path:url(#SVGID_2_);} .st3{clip-path:url(#SVGID_4_);} .st4{fill-rule:evenodd;clip-rule:evenodd;fill:#FFF500;} .st5{fill-rule:evenodd;clip-rule:evenodd;fill:#E0D900;}</style><path d="M40.5 5H48v57H5v-3.5H4V63h45V4h-8.5z" class="st0"/><path d="M22 18h17v-1H22M22 21.3h17v-1H22M22 24.7h9v-1h-9M7 53.5v-15H6v15M11 53.5v-10h-1v10M15 53.5v-19h-1v19M19 53.5v-13h-1v13M23 53.5v-17h-1v17M27 53.5v-11h-1v11M31 53.5v-13h-1v13M35 53.5v-20h-1v20M39 53.5v-17h-1v17" class="st1"/><path d="M36.7 0H0v59h45V8.3L36.7 0zm.3 1.7L43.3 8H37V1.7zM1 58V1h35v8h8v49H1z" class="st1"/><defs><path id="SVGID_1_" d="M9.2 5l3.3 3.2v3.2H9.2L6 8.2z"/></defs><clipPath id="SVGID_2_"><use xlink:href="#SVGID_1_" overflow="visible"/></clipPath><g class="st2"><defs><path id="SVGID_3_" d="M6 5h6.5v6.5H6z"/></defs><clipPath id="SVGID_4_"><use xlink:href="#SVGID_3_" overflow="visible"/></clipPath><g class="st3"><defs><path id="SVGID_5_" d="M6 5h6.5v6.5H6z"/></defs><clipPath id="SVGID_6_"><use xlink:href="#SVGID_5_" overflow="visible"/></clipPath></g></g><path d="M15.7 5l3.2 3.2-3.2 3.2h-3.2V8.2z" class="st4"/><path d="M9.21773 11.38629l3.25266-3.25266 3.25266 3.25266-3.25266 3.25266z" class="st5"/></svg>