<svg xmlns="http://www.w3.org/2000/svg" id="Layer_1" viewBox="0 0 25 25"><style>.st0{fill:#FFFFFF;}</style><path d="M12.5 2.3c3.3 0 3.7 0 5.1.1 1.2.1 1.9.3 2.3.4.6.2 1 .5 1.4.9.4.4.7.9.9 1.4.2.4.4 1.1.4 2.3.1 1.3.1 1.7.1 5.1s0 3.7-.1 5.1c-.1 1.2-.3 1.9-.4 2.3-.2.6-.5 1-.9 1.4-.4.4-.9.7-1.4.9-.4.2-1.1.4-2.3.4-1.3.1-1.7.1-5.1.1-3.3 0-3.7 0-5.1-.1-1.2-.1-1.9-.3-2.3-.4-.6-.2-1-.5-1.4-.9-.4-.4-.7-.9-.9-1.4-.2-.4-.4-1.1-.4-2.3-.1-1.3-.1-1.7-.1-5.1s0-3.7.1-5.1c.1-1.2.3-1.9.4-2.3.2-.6.5-1 .9-1.4.4-.4.8-.7 1.4-.9.4-.2 1.1-.4 2.3-.4 1.4-.1 1.8-.1 5.1-.1m0-2.3C9.1 0 8.7 0 7.3.1 6 .1 5.1.3 4.3.7c-.8.3-1.5.7-2.2 1.4C1.4 2.8 1 3.5.7 4.3c-.4.8-.6 1.7-.6 3C0 8.7 0 9.1 0 12.5c0 3.4 0 3.8.1 5.2.1 1.3.3 2.2.6 3 .3.8.7 1.5 1.4 2.2.7.7 1.4 1.1 2.2 1.4.8.3 1.7.5 3 .6 1.4.1 1.8.1 5.2.1 3.4 0 3.8 0 5.2-.1 1.3-.1 2.2-.3 3-.6.8-.3 1.5-.7 2.2-1.4.7-.7 1.1-1.4 1.4-2.2.3-.8.5-1.7.6-3 .1-1.3.1-1.8.1-5.2 0-3.4 0-3.8-.1-5.2-.1-1.3-.3-2.2-.6-3-.3-.8-.7-1.5-1.4-2.2-.7-.7-1.4-1.1-2.2-1.4-.8-.3-1.7-.5-3-.6-1.4-.1-1.8-.1-5.2-.1" class="st0"/><path d="M12.5 6.1C9 6.1 6.1 9 6.1 12.5s2.9 6.4 6.4 6.4c3.5 0 6.4-2.9 6.4-6.4S16 6.1 12.5 6.1m0 10.6c-2.3 0-4.2-1.9-4.2-4.2s1.9-4.2 4.2-4.2 4.2 1.9 4.2 4.2-1.9 4.2-4.2 4.2M20.7 5.8c0 .8-.7 1.5-1.5 1.5s-1.5-.7-1.5-1.5.7-1.5 1.5-1.5 1.5.7 1.5 1.5" class="st0"/></svg>