<svg xmlns="http://www.w3.org/2000/svg" id="Layer_1" viewBox="0 0 30 24"><style>.st0{fill:#FFFFFF;}</style><path d="M30 2.8c-1.1.5-2.3.8-3.5 1 1.3-.7 2.2-1.9 2.7-3.4-1.2.7-2.5 1.2-3.9 1.5C24.1.7 22.5 0 20.8 0c-3.4 0-6.2 2.7-6.2 6.1 0 .5.1.9.2 1.4-5.1-.3-9.7-2.7-12.7-6.4-.5.9-.8 1.9-.8 3.1 0 2.1 1.1 4 2.7 5-1 0-2-.3-2.8-.8v.1c0 2.9 2.1 5.4 4.9 5.9-.5.1-1.1.2-1.6.2-.4 0-.8 0-1.2-.1.8 2.4 3.1 4.2 5.8 4.2-2.1 1.6-4.8 2.6-7.6 2.6-.5 0-1 0-1.5-.1C2.7 23 6 24 9.4 24c11.3 0 17.5-9.2 17.5-17.2V6c1.2-.9 2.3-1.9 3.1-3.2z" class="st0"/></svg>