<svg xmlns="http://www.w3.org/2000/svg" id="Layer_1" viewBox="0 0 53 63.5"><style>.st0{fill:none;stroke:#222829;stroke-miterlimit:10;}</style><path d="M.5.5h52v16H.5zM4.5 20.5v-4M48.5 16.5v4M6.5 5.5v6M10.5 5.5v6M14.5 5.5v6M18.5 5.5v6M22.5 5.5v6M.5 20.5h52v16H.5zM4.5 40.5v-4M48.5 36.5v4M6.5 25.5v6M10.5 25.5v6M14.5 25.5v6M18.5 25.5v6M22.5 25.5v6M36.5 28.5h-2M32.5 28.5h-2M28.5 28.5h-2M.5 40.5h52v16H.5zM4.5 63.5v-7M48.5 56.5v7M6.5 45.5v6M10.5 45.5v6M14.5 45.5v6M18.5 45.5v6M22.5 45.5v6" class="st0"/><circle cx="43.5" cy="28.5" r="3" class="st0"/><path d="M36.5 48.5h-2M32.5 48.5h-2M28.5 48.5h-2" class="st0"/><circle cx="43.5" cy="48.5" r="3" class="st0"/><path d="M36.5 8.5h-2M32.5 8.5h-2M28.5 8.5h-2" class="st0"/><circle cx="43.5" cy="8.5" r="3" class="st0"/><path d="M7.5 60.5h38" class="st0"/></svg>