<svg xmlns="http://www.w3.org/2000/svg" id="Layer_1" viewBox="0 0 63 63"><style>.st0{fill:none;stroke:#222829;stroke-linejoin:round;stroke-miterlimit:10;} .st1{fill:none;stroke:#222829;stroke-miterlimit:10;}</style><path d="M62.5 31.5H.5" class="st0"/><circle cx="31.5" cy="31.5" r="31" class="st1"/><path d="M18.2 41.5c-.5-3.1-.7-6.5-.7-10 0-17.1 6.3-31 14-31 5.1 0 9.5 6 12 15M44.8 21.5c.5 3.1.7 6.5.7 10 0 17.1-6.3 31-14 31-5.1 0-9.5-6-12-15" class="st0"/><path d="M15.5 43.5c-9-2.5-15-6.9-15-12 0-7.7 13.9-14 31-14 3.5 0 6.9.3 10 .7M47.5 19.5c9 2.5 15 6.9 15 12 0 7.7-13.9 14-31 14-3.5 0-6.9-.3-10-.7" class="st0"/><circle cx="44.5" cy="18.5" r="3" class="st0"/><circle cx="18.5" cy="44.5" r="3" class="st0"/><path d="M26.5 25.5h2M30.5 25.5h2M34.5 25.5h2M26.5 37.5h2M30.5 37.5h2M34.5 37.5h2" class="st0"/></svg>