<svg xmlns="http://www.w3.org/2000/svg" id="_copy_3" data-name="&gt; copy 3" viewBox="0 0 54 54"><defs><style>.arrow-c-i-1 { fill-opacity: 0; stroke-width: 4px; } .arrow-c-i-1, .arrow-c-i-2 { stroke: #eceff2; } .arrow-c-i-2 { stroke-width: 5px; fill-rule: evenodd; }</style></defs><circle cx="27" cy="27" r="25" class="arrow-c-i-1"/><path id="Rounded_Rectangle_2_copy" d="M22.51 36.45a1.86 1.86 0 0 1 0-2.59l8.42-8.67a1.757 1.757 0 0 1 2.52 0 1.872 1.872 0 0 1 0 2.6l-8.42 8.66a1.74 1.74 0 0 1-2.52 0zm8.42-8.66l-8.42-8.66a1.872 1.872 0 0 1 0-2.6 1.74 1.74 0 0 1 2.52 0l8.42 8.66a1.872 1.872 0 0 1 0 2.6 1.74 1.74 0 0 1-2.52 0z" data-name="Rounded Rectangle 2 copy" class="arrow-c-i-2"/></svg>