<svg xmlns="http://www.w3.org/2000/svg" data-name="copy 3" viewBox="0 0 54 54" width="54" height="54"><circle cx="27" cy="27" r="25" fill="none" stroke="currentcolor" stroke-width="4"/><path stroke="currentcolor" stroke-width="5" d="M22.51 36.45a1.86 1.86 0 0 1 0-2.59l8.42-8.67a1.76 1.76 0 0 1 2.48 0 1.87 1.87 0 0 1 0 2.6L25 36.45a1.74 1.74 0 0 1-2.46.06zm8.42-8.66l-8.42-8.66a1.87 1.87 0 0 1 0-2.6 1.74 1.74 0 0 1 2.49-.06l.06.06 8.42 8.66a1.87 1.87 0 0 1 0 2.6 1.74 1.74 0 0 1-2.46.06z" data-name="Rounded Rectangle 2 copy"/></svg>