<svg xmlns="http://www.w3.org/2000/svg" viewBox="0 0 800 800"><path fill="#4D4D4D" d="M399.996 34.504C198.458 34.504 34.504 198.463 34.504 400s163.954 365.495 365.492 365.495c201.536 0 365.499-163.958 365.499-365.495S601.532 34.504 399.996 34.504zM583.45 371.083h148.735c.83 9.536 1.338 19.166 1.338 28.917 0 9.745-.508 19.371-1.338 28.907H583.45c1.491-9.447 2.48-19.055 2.48-28.907.001-9.862-.998-19.47-2.48-28.917zm144.399-31.972H577.981c-.819 0-1.613.125-2.407.241-18.689-53.926-61.438-96.575-115.443-115.113.456-1.472.768-3.002.768-4.621V72.149c135.147 25.05 241.903 131.805 266.95 266.962zM399.996 553.958c-84.891 0-153.963-69.064-153.963-153.958 0-84.895 69.073-153.959 153.963-153.959 84.897 0 153.964 69.064 153.964 153.959 0 84.894-69.066 153.958-153.964 153.958zM428.925 67.81v148.744c-9.454-1.485-19.064-2.484-28.929-2.484-9.849 0-19.458.995-28.895 2.479V67.806c9.527-.821 19.153-1.33 28.895-1.33 9.749 0 19.385.508 28.929 1.334zm-89.796 4.331v147.478c0 1.614.312 3.145.758 4.612-54.015 18.528-96.772 61.192-115.469 115.122-.785-.116-1.579-.241-2.409-.241H72.141C97.19 203.944 203.962 97.186 339.129 72.141zM66.476 400c0-9.751.509-19.381 1.33-28.917h148.735c-1.481 9.447-2.479 19.054-2.479 28.917 0 9.853.999 19.46 2.479 28.907H67.806c-.821-9.536-1.33-19.162-1.33-28.907zm5.665 60.88H222.01c.83 0 1.614-.125 2.409-.241 18.6 53.685 61.062 96.188 114.72 114.855 0 .034-.009.06-.009.097v152.268C203.954 702.813 97.19 596.046 72.141 460.88zm298.96 271.315V583.45c9.438 1.486 19.046 2.48 28.895 2.48 9.864 0 19.475-.999 28.929-2.484V732.19c-9.544.825-19.18 1.333-28.929 1.333-9.742 0-19.368-.507-28.895-1.328zm89.797-4.346V575.591c0-.037-.019-.07-.019-.106 53.647-18.672 96.102-61.17 114.694-114.846.794.116 1.588.241 2.407.241h149.867c-25.036 135.159-131.791 241.922-266.949 266.969z"/></svg>