<svg xmlns="http://www.w3.org/2000/svg" id="Layer_1" viewBox="0 0 50.6 61.3"><style>.char-electro-i-0{fill:#222829;}</style><path d="M30.4 8.7L25.3 0l-5.1 8.7H0v1h6.6L20 15.3V24H0v1h6.6L20 30.6V35L9.3 60l-.2.2.1.1H3.4v1h6.3l.1-.1.1-.1V61c3.8-3.5 9.2-5.8 15.3-5.8 6.1 0 11.5 2.2 15.3 5.8v.1l.1.1.1.1H47v-1h-5.8l.1-.1-.1-.2-10.6-25v-4.4L43.9 25h6.6v-1h-20v-8.7l13.3-5.6h6.6v-1h-20zM21 23.4v-7.2l3.6 3.6-3.6 3.6zm4.3-2.9l3.5 3.5h-7l3.5-3.5zM21 26.3l3.6 3.6-3.6 3.6v-7.2zm0-1.3h8.5l-4.3 4.3L21 25zm8.6 1.3v7.2L26 29.9l3.6-3.6zM26 19.8l3.6-3.6v7.2L26 19.8zm3.6-5.1L25.3 19 21 14.7v-5h8.6v5zM25.3 2l3.9 6.7h-7.9l4-6.7zM9.2 9.7H20v4.5L9.2 9.7zm0 15.3H20v4.5L9.2 25zm10 14.3l5.4 5.4-5.9 5.9-3-3 3.5-8.3zm-3.9 9.3l2.7 2.7-6.8 6.8 4.1-9.5zm3.4 3.4l2.5 2.5c-2.8.5-5.4 1.4-7.7 2.7l5.2-5.2zm3.8 2.4l-3.1-3.1 5.9-5.9 5.9 5.9-3.1 3.1c-.9-.1-1.9-.2-2.8-.2-1 0-1.9.1-2.8.2zm3.5-9.7l5.4-5.4 3.5 8.2-3 3-5.9-5.8zm5.9 7.3l5.2 5.2c-2.3-1.3-4.9-2.2-7.7-2.7l2.5-2.5zm.7-.7l2.7-2.7 4 9.5-6.7-6.8zm-1.6-13L25.3 44l-5.7-5.7 1.4-3.2V35l4.3-4.3 4.3 4.3v.2l1.4 3.1zM41.3 25l-10.7 4.5V25h10.7zM30.6 14.2V9.7h10.7l-10.7 4.5z" class="char-electro-i-0"/><path d="M0 11.1h6.7v1H0zM0 13.5h6.7v1H0zM43.8 11.1h6.7v1h-6.7zM43.8 13.5h6.7v1h-6.7zM0 26.4h6.7v1H0zM0 28.8h6.7v1H0zM43.8 26.4h6.7v1h-6.7zM43.8 28.8h6.7v1h-6.7z" class="char-electro-i-0"/></svg>