<svg xmlns="http://www.w3.org/2000/svg" id="Layer_1" viewBox="0 0 58.8 60.3"><style>.char-secur-i-0{fill:#222829;}</style><path d="M57.8 37.7v10.8H42.1L35.4 32c2.2-1.1 3.6-3.4 3.6-5.8 0-.2 0-.5-.1-.7l15.7-4.2c1.9-.5 3.1-2.2 3.1-4.1 0-.4 0-.7-.1-1.1l-3.4-13C53.7 1.2 52 0 50.1 0c-.4 0-.7 0-1.1.1L3.2 12.3 5.1 17 0 18.4l3 11.4.5-.1L9.6 28l1.9 4.7.4-.1 14.5-3.9c1 2.4 3.4 4 6 4 .5 0 1-.1 1.6-.2.2 0 .3-.1.4-.2l7 17.1h16.4v10.8h1V37.7h-1zM3.7 28.5L1.2 19l4.2-1 3.8 9.1-5.5 1.4zm6.9-.7l-.2-.6-5.8-14.3L49.3 1.1c.3-.1.5-.1.8-.1 1.4 0 2.7 1 3.1 2.4l3.4 13c.1.3.1.6.1.8 0 1.4-1 2.7-2.4 3.1L12.1 31.6l-1.5-3.8zm23.2 3.8c-.4.1-.9.2-1.3.2-2.1 0-4.1-1.3-5-3.2L38 25.8v.5c0 2.4-1.7 4.7-4.2 5.3z" class="char-secur-i-0"/><path d="M48.23426 7.74908l.9668-.2556 1.94256 7.34768-.9668.2556zM43.73578 8.85899l.9668-.2557 1.94332 7.34768-.9668.2557zM39.34617 10.14481l.9668-.2557 1.94332 7.34768-.9668.2557z" class="char-secur-i-0"/></svg>