<svg xmlns="http://www.w3.org/2000/svg" id="Layer_1" viewBox="0 0 60.9 60.9"><style>.char-climate-i-0{fill:#222829;}</style><path d="M30.5 4.4c-14.4 0-26 11.7-26 26 0 14.4 11.7 26 26 26 14.4 0 26-11.7 26-26s-11.7-26-26-26zm17.7 43.8c-4.5 4.5-10.8 7.3-17.7 7.3-6.9 0-13.2-2.8-17.7-7.3S5.5 37.4 5.5 30.5c0-6.9 2.8-13.2 7.3-17.7s10.8-7.3 17.7-7.3c6.9 0 13.2 2.8 17.7 7.3s7.3 10.8 7.3 17.7c0 6.9-2.8 13.1-7.3 17.7z" class="char-climate-i-0"/><path d="M0 0v60.9h60.9V0H0zm1 1h58.9v58.9H1V1z" class="char-climate-i-0"/><path d="M39.8 10.5l-.7-.3-.1.7c-.3 4.5-1.8 7.8-3.2 10-.7 1.1-1.4 1.9-1.9 2.5-.2.3-.4.4-.6.6-.1-.1-.2-.1-.3-.1.4-1.3 1.4-5.4 1.4-10.2 0-1.5-.1-3.1-.4-4.6l-.1-.4-.4-.1c-1.1-.2-2.2-.2-3.3-.2-2.7 0-5.2.5-7.6 1.3l-.4.3.5.5c4.9 5.6 5.3 11.2 5.3 13v.2c-.1 0-.2.1-.3.1-.9-1.6-4.3-7.3-9.7-11.2l-.3-.2-.3.2c-.9.6-1.7 1.4-2.5 2.2-1.9 1.9-3.3 4-4.4 6.3l-.3.7.7.1c4.5.3 7.8 1.8 10 3.2 1.1.7 1.9 1.4 2.5 1.9.3.2.4.4.6.6 0 .1-.1.2-.1.3-1.3-.4-5.4-1.4-10.2-1.4-1.5 0-3.1.1-4.6.4l-.4.1-.1.4c-.2 1.1-.2 2.2-.2 3.3 0 2.7.5 5.2 1.3 7.6l.2.7.5-.5c5.6-4.9 11.2-5.3 13-5.3h.2c0 .1.1.2.1.3-1.6.9-7.3 4.3-11.2 9.7l-.2.3.2.3c.6.9 1.4 1.7 2.2 2.5 1.9 1.9 4 3.3 6.3 4.4l.7.3.1-.7c.3-4.5 1.8-7.8 3.2-10 .7-1.1 1.4-1.9 1.9-2.5.2-.3.4-.4.6-.6.1 0 .2.1.3.1-.4 1.3-1.4 5.4-1.4 10.2 0 1.5.1 3.1.4 4.6l.1.4.4.1c1.1.2 2.2.2 3.3.2 2.7 0 5.2-.5 7.6-1.3l.7-.2-.5-.5c-4.9-5.6-5.3-11.2-5.3-13v-.2c.1 0 .2-.1.3-.1.9 1.6 4.3 7.3 9.7 11.2l.3.2.3-.2c.9-.6 1.7-1.4 2.5-2.2 1.9-1.9 3.3-4 4.4-6.3l.3-.7-.9-.4c-4.5-.3-7.8-1.8-10-3.2-1.1-.7-1.9-1.4-2.5-1.9-.3-.2-.4-.4-.6-.6 0-.1.1-.2.1-.3 1.3.4 5.4 1.4 10.2 1.4 1.5 0 3.1-.1 4.6-.4l.4-.1.1-.4c.2-1.1.2-2.2.2-3.3 0-2.7-.5-5.2-1.3-7.6L51 22l-.5.5c-5.6 4.9-11.2 5.3-13 5.3h-.2c0-.1-.1-.2-.1-.3 1.6-.9 7.3-4.3 11.2-9.7l.2-.3-.2-.3c-.6-.9-1.4-1.7-2.2-2.5-2-1.7-4.1-3.1-6.4-4.2zm-3.2 20c0 1.7-.7 3.2-1.8 4.3-1.1 1.1-2.6 1.8-4.3 1.8-1.7 0-3.2-.7-4.3-1.8-1.1-1.1-1.8-2.6-1.8-4.3 0-1.7.7-3.2 1.8-4.3 1.1-1.1 2.6-1.8 4.3-1.8 1.7 0 3.2.7 4.3 1.8 1.1 1 1.8 2.6 1.8 4.3zm-12.7-20c2.1-.7 4.2-1.1 6.5-1.1.9 0 1.9.1 2.8.2.2 1.4.3 2.8.3 4.1 0 2.8-.4 5.4-.8 7.3-.2.9-.4 1.7-.5 2.2 0 .1-.1.2-.1.3-.6-.1-1.1-.2-1.7-.2-.5 0-1 .1-1.5.1.1-1.8-.4-7.3-5-12.9zM11.7 20.9c1-1.9 2.3-3.7 3.9-5.4.7-.7 1.4-1.3 2.1-1.8 2.9 2.1 5.2 4.8 6.8 7 .8 1.1 1.5 2.1 1.9 2.9.2.3.3.5.4.7-.9.5-1.7 1.3-2.3 2.2-1.3-1.3-5.5-4.8-12.8-5.6zM10.5 37c-.7-2.1-1.1-4.2-1.1-6.5 0-.9.1-1.9.2-2.8 1.4-.2 2.8-.3 4.1-.3 2.8 0 5.4.4 7.3.8.9.2 1.7.4 2.2.5.1 0 .3.1.4.1-.1.6-.2 1.1-.2 1.7 0 .5 0 1 .1 1.4-1.9 0-7.4.5-13 5.1zm10.4 12.2c-1.9-1-3.7-2.3-5.4-3.9-.7-.7-1.3-1.4-1.8-2.1 2.1-2.9 4.8-5.2 7-6.8 1.1-.8 2.1-1.5 2.9-1.9.3-.2.5-.3.7-.4.5.9 1.3 1.7 2.2 2.3-1.3 1.3-4.8 5.6-5.6 12.8zm16 1.2c-2.1.7-4.2 1.1-6.5 1.1-.9 0-1.9-.1-2.8-.2-.2-1.4-.3-2.8-.3-4.1 0-2.8.4-5.4.8-7.3.2-.9.4-1.7.5-2.2 0-.1.1-.3.1-.4.6.1 1.2.2 1.8.2.5 0 .9 0 1.4-.1 0 1.9.4 7.4 5 13zM49.2 40c-1 1.9-2.3 3.7-3.9 5.4-.7.7-1.4 1.3-2.1 1.8-2.9-2.1-5.2-4.8-6.8-7-.8-1.1-1.5-2.1-1.9-2.9-.2-.3-.3-.5-.4-.7.9-.5 1.7-1.3 2.3-2.2 1.3 1.3 5.6 4.9 12.8 5.6zm1.2-16c.7 2.1 1.1 4.2 1.1 6.5 0 .9-.1 1.9-.2 2.8-1.4.2-2.8.3-4.1.3-2.8 0-5.4-.4-7.3-.8-.9-.2-1.7-.4-2.2-.5-.1 0-.3-.1-.4-.1.1-.6.2-1.1.2-1.7 0-.5 0-1-.1-1.4 1.9-.1 7.4-.5 13-5.1zm-10.3.5c-1.1.8-2.1 1.5-2.8 1.9-.3.2-.5.3-.7.4-.5-.9-1.3-1.7-2.2-2.3 1.3-1.3 4.9-5.6 5.6-12.8 1.9 1 3.7 2.3 5.4 3.9.7.7 1.3 1.4 1.8 2.1-2.2 2.9-4.9 5.2-7.1 6.8zM53.8 5.6h2v1h-2zM53.8 54.3h2v1h-2zM5.1 5.6h2v1h-2zM5.1 54.3h2v1h-2z" class="char-climate-i-0"/><path d="M30.5 27c-1.9 0-3.5 1.6-3.5 3.5s1.6 3.5 3.5 3.5 3.5-1.6 3.5-3.5c0-2-1.6-3.5-3.5-3.5zm0 6c-1.4 0-2.5-1.1-2.5-2.5s1.1-2.5 2.5-2.5 2.5 1.1 2.5 2.5c0 1.3-1.2 2.5-2.5 2.5z" class="char-climate-i-0"/></svg>