<svg xmlns="http://www.w3.org/2000/svg" id="Layer_1" viewBox="0 0 45 59"><style>.doc-i-0{fill:#222829;}</style><path d="M6 17h30.5v1H6zM6 20.3h30.5v1H6zM6 23.7h9v1H6z" class="doc-i-0"/><path d="M36.7 0H0v59h45V8.3L36.7 0zm.3 1.7L43.3 8H37V1.7zM1 58V1h35v8h8v49H1z" class="doc-i-0"/><path d="M11.1 46.1c-.3-.2-.6-.3-1-.4-.3-.1-.7-.1-1.2-.1H6v7.9h1v-3.2h2c1.1 0 1.9-.2 2.3-.7.4-.5.6-1 .6-1.7 0-.4-.1-.7-.2-1.1s-.3-.5-.6-.7zm-.6 2.9c-.3.3-.8.4-1.4.4H7v-2.8h2c.5 0 .8 0 1 .1.3.1.5.2.7.5.2.2.3.5.3.8-.1.4-.2.7-.5 1zM18.6 46.3c-.3-.3-.7-.5-1.2-.6-.3-.1-.8-.1-1.4-.1h-2.7v7.9h2.8c.5 0 .9 0 1.3-.1s.7-.2.9-.4c.3-.2.5-.4.7-.7.2-.3.4-.7.5-1.1.1-.5.2-1 .2-1.6 0-.7-.1-1.3-.3-1.9-.1-.6-.4-1-.8-1.4zm0 4.7c-.1.4-.3.7-.6 1-.2.2-.4.3-.7.4-.3.1-.7.1-1.2.1h-1.7v-6H16c.6 0 1.1.1 1.3.2.4.2.7.4 1 .9.3.4.4 1.1.4 1.9.1.6 0 1.1-.1 1.5zM21.3 53.5h1.1v-3.6h3.7V49h-3.7v-2.4h4.2v-1h-5.3z" class="doc-i-0"/></svg>