<svg xmlns="http://www.w3.org/2000/svg" data-name="Layer 1" viewBox="0 0 45 59"><path fill="currentcolor" d="M6 17h30.5v1H6zm0 3.3h30.5v1H6zm0 3.4h9v1H6z"/><path fill="currentcolor" d="M36.7 0H0v59h45V8.3zm.3 1.7L43.3 8H37zM1 58V1h35v8h8v49z"/><path fill="currentcolor" d="M11.1 46.1a3 3 0 0 0-1-.4 4.12 4.12 0 0 0-1.2-.1H6v7.9h1v-3.2h2a2.88 2.88 0 0 0 2.3-.7 2.52 2.52 0 0 0 .6-1.7 4.25 4.25 0 0 0-.2-1.1c-.1-.4-.3-.5-.6-.7zm-.6 2.9a2 2 0 0 1-1.4.4H7v-2.8h2a2.51 2.51 0 0 1 1 .1 1.16 1.16 0 0 1 .7.5 1.14 1.14 0 0 1 .3.8 1.91 1.91 0 0 1-.5 1zm8.1-2.7a2.28 2.28 0 0 0-1.2-.6 5.31 5.31 0 0 0-1.4-.1h-2.7v7.9h2.8a5.28 5.28 0 0 0 1.3-.1 1.88 1.88 0 0 0 .9-.4 2.34 2.34 0 0 0 .7-.7 3.7 3.7 0 0 0 .5-1.1 7.77 7.77 0 0 0 .2-1.6 5.82 5.82 0 0 0-.3-1.9 2.48 2.48 0 0 0-.8-1.4zm0 4.7a2.07 2.07 0 0 1-.6 1 1.61 1.61 0 0 1-.7.4 4.12 4.12 0 0 1-1.2.1h-1.7v-6H16a3.47 3.47 0 0 1 1.3.2 2.13 2.13 0 0 1 1 .9 3.36 3.36 0 0 1 .4 1.9 3.55 3.55 0 0 1-.1 1.5zm2.7 2.5h1.1v-3.6h3.7V49h-3.7v-2.4h4.2v-1h-5.3z"/></svg>