<svg xmlns="http://www.w3.org/2000/svg" id="Layer_1" viewBox="0 0 63 58"><style>.gen-speed-i-0{fill:#FFFFFF;} .gen-speed-i-1{fill:#F9E220;}</style><path d="M31.5 0C14.1 0 0 14.1 0 31.5c0 8.7 3.5 16.7 9.1 22.4l.2.1h44.4l.1-.1c5.7-5.7 9.1-13.7 9.1-22.4C63 14.1 48.9 0 31.5 0zm21.8 53H9.7C4.3 47.5 1 39.8 1 31.5c0-8.4 3.4-16 8.9-21.6C15.5 4.4 23.1 1 31.5 1c8.4 0 16 3.4 21.6 8.9C58.6 15.4 62 23 62 31.5c0 8.3-3.3 16-8.7 21.5z" class="gen-speed-i-0"/><path d="M23.9 37.2c-1.2-1.6-1.9-3.6-1.9-5.7 0-2.6 1.1-5 2.8-6.7 1.7-1.7 4.1-2.8 6.7-2.8 2.6 0 5 1.1 6.7 2.8 1.7 1.7 2.8 4.1 2.8 6.7 0 2.1-.7 4.1-1.9 5.7l.8.6c1.3-1.8 2.1-3.9 2.1-6.3C42 25.7 37.3 21 31.5 21S21 25.7 21 31.5c0 2.4.8 4.5 2.1 6.3l.8-.6zM11.5 58h40v-1h-40" class="gen-speed-i-0"/><path d="M31 46.5v2h1v-2M27 46.5v2h1v-2M35 46.5v2h1v-2M39 46.5v2h1v-2M23 46.5v2h1v-2" class="gen-speed-i-1"/><path d="M31.5 6C17.4 6 6 17.4 6 31.5c0 5.7 1.9 11 5.1 15.3l.8-.6c-3-4-4.8-8.9-4.9-14.2h2.5v-1H7c.1-6.4 2.7-12.2 6.8-16.5l2.3 2.3.7-.7-2.3-2.3C18.8 9.7 24.6 7.1 31 7v2.5h1V7c6.4.1 12.2 2.7 16.5 6.8l-2.3 2.3.7.7 2.3-2.3c4.1 4.3 6.7 10.1 6.8 16.5h-2.5v1H56c-.1 5.3-1.9 10.2-4.9 14.2l.8.6c3.2-4.3 5.1-9.6 5.1-15.3C57 17.4 45.6 6 31.5 6z" class="gen-speed-i-1"/><path d="M48.5 28.7l-.2-1-13.6 2.5c-.5-1.3-1.7-2.2-3.2-2.2-1.9 0-3.5 1.6-3.5 3.5s1.6 3.5 3.5 3.5 3.5-1.6 3.5-3.5v-.3l13.5-2.5zm-17 5.3c-1.4 0-2.5-1.1-2.5-2.5s1.1-2.5 2.5-2.5 2.5 1.1 2.5 2.5-1.1 2.5-2.5 2.5z" class="gen-speed-i-1"/></svg>