<svg xmlns="http://www.w3.org/2000/svg" id="tier_copy_2" viewBox="0 0 247.4 259.8"><style>.gen-data-i-0{fill:#FFFFFF;} .gen-data-i-1{fill:#FFF233;}</style><path d="M29.4 160.8l1.7-1C22.7 144.7 18 127.2 18 108.6 18 50.8 64.8 4 122.6 4c57.7 0 104.5 46.9 104.5 104.6v.1c0 18.6-5 36.1-13.5 51.2l-1.7 3h24.4c1.9 0 3.7.8 4.9 2.1 1.3 1.3 2 3 2.1 4.9v79c0 1.9-.8 3.7-2.1 4.9-1.3 1.3-3 2-4.9 2.1H11c-1.9 0-3.7-.8-4.9-2.1-1.3-1.3-2-3-2.1-4.9v-79c0-1.9.8-3.7 2.1-4.9 1.3-1.3 3-2 4.9-2.1h21.8l-1.7-3-1.7.9v-2H11c-6.1 0-11 4.9-11 11v79c0 6.1 4.9 11 11 11h225.4c6.1 0 11-4.9 11-11v-79c0-6.1-4.9-11-11-11h-21v2l1.7 1c8.8-15.7 14-33.9 14-53.1v-.1C231.2 48.6 182.6 0 122.6 0S14 48.6 14 108.6c0 19.3 4.9 37.5 13.7 53.2l1.7-1v-2 2z" class="gen-data-i-0"/><path id="TIER" d="M1 79h15.4v36.8h15.1V79h15.4V67H1v12zm49.8 36.8h15.1V67H50.8v48.8zm22.5 0h41.1v-11.1h-26v-9.6h23.4v-10H88.4v-7.8h25.3V67H73.3v48.8zm61.1 0V96h1.3c1.3 0 2.6.4 3.7 1.1 1.2 1.1 2.1 2.3 2.7 3.8l8.1 14.9h17l-7.3-14.1c-.6-1.1-1.3-2.1-2.1-3-.7-.9-1.5-1.8-2.4-2.6-1.2-.8-2.5-1.4-3.9-1.8 1.9-.4 3.6-1 5.3-1.9 6.6-4.3 8.5-13.1 4.2-19.7-1.4-2.1-3.5-3.7-6-4.4-3.5-.9-7.1-1.3-10.7-1.2h-25.1v48.8l15.2-.1zm0-39h6.6c2.7 0 4.6.4 5.6 1.3 1.8 1.7 2 4.5.5 6.5-.6.8-1.5 1.3-2.4 1.5-1.3.3-2.6.6-4 .7h-6.4l.1-10z" class="gen-data-i-1"/><path id="DESIGN" d="M74.1 162.5h6.6c1 0 2.1-.1 3.1-.4.9-.3 1.8-.8 2.4-1.4.9-.9 1.5-2 1.8-3.1.4-1.2.6-2.5.5-3.8 0-1.4-.2-2.8-.6-4.2-.3-1.1-.9-2-1.6-2.9-.7-.8-1.6-1.3-2.6-1.6-1.1-.3-2.2-.4-3.3-.3H74v17.7h.1zm5.1-14.7c1 0 1.9 0 2.9.2.6.1 1.2.4 1.6.8.5.5.8 1.1 1 1.7.3 1 .4 2.1.4 3.1 0 1.1-.1 2.2-.4 3.2-.2.6-.5 1.2-.9 1.7-.4.4-.9.6-1.4.7-.7.1-1.4.2-2.1.2h-2.6v-11.7h1.5v.1zm25.4 14.7v-3H95v-4.8h8.7v-3H95v-3.9h9.3v-3H91.5v17.7h13.1zm4.2-1.2c1.4 1.1 3.2 1.7 5 1.6 1.3 0 2.6-.2 3.8-.6 1-.4 1.8-1.1 2.3-2 1-1.7 1.1-3.9.1-5.7-.5-.8-1.1-1.4-1.9-1.8-1.2-.6-2.5-1-3.8-1.3-1.1-.2-2.2-.6-3.2-1.2-.3-.3-.5-.7-.5-1.1 0-.4.2-.8.6-1.1.7-.5 1.5-.7 2.4-.6.8-.1 1.6.2 2.2.6.5.5.9 1.2 1 2l3.5-.2c0-1.5-.6-2.9-1.7-3.9-1.4-1.1-3.1-1.6-4.9-1.5-1.2 0-2.3.2-3.4.6-.9.4-1.6 1-2.2 1.8-1.3 2-.9 4.5.8 6.1 1.2.9 2.5 1.5 3.9 1.7 1.5.4 2.4.6 2.8.8.5.1.9.4 1.3.8.2.3.4.7.4 1.1 0 .7-.3 1.3-.9 1.7-.7.5-1.6.8-2.5.7-.9 0-1.8-.2-2.5-.8-.7-.7-1.1-1.6-1.2-2.6l-3.4.3c0 1.8.8 3.4 2 4.6zm18.3 1.2v-17.7h-3.5v17.7h3.5zm15.3-6.5v2.2c-.6.4-1.2.8-1.9 1.1-.7.3-1.4.4-2.2.4-1.4 0-2.7-.5-3.6-1.6-1-1.4-1.5-3-1.4-4.7-.1-1.6.4-3.2 1.3-4.4.9-1 2.3-1.5 3.6-1.5.9 0 1.8.2 2.5.8.7.5 1.2 1.2 1.4 2.1l3.5-.7c-.3-1.5-1.1-2.9-2.3-3.8-1.5-1-3.2-1.5-5-1.4-1.4 0-2.8.3-4.1.9-1.4.7-2.6 1.9-3.3 3.3-.8 1.5-1.2 3.2-1.1 4.9 0 1.6.3 3.2 1 4.7.6 1.4 1.7 2.6 3 3.3 1.4.8 3.1 1.2 4.7 1.2 1.4 0 2.9-.3 4.2-.8 1.2-.4 2.3-1.1 3.2-1.9v-7h-7.5v3l4-.1zm10 6.5V151l7 11.5h3.5v-17.7h-3.2v11.8l-7.1-11.8h-3.4v17.7h3.2z" class="gen-data-i-1"/><path id="velcom_" d="M50.7 199.5l8.8 23.2h4l9.1-23.2h-4.4l-4.5 13.1c-.8 2.1-1.4 4-2 6h-.1c-.5-2-1.1-4-1.9-6l-4.6-13.1h-4.4zm44.1 12.4c.1-.7.1-1.3.1-2 0-4.3-2-10.9-9.6-10.9-6.8 0-10.9 5.5-10.9 12.5s4.3 11.7 11.4 11.7c2.6.1 5.3-.4 7.7-1.4l-.7-3c-2 .9-4.2 1.3-6.4 1.2-4.2 0-7.9-2.4-8-8.1h16.4zm-16.3-3c.3-2.9 2.2-6.9 6.5-6.9 4.7 0 5.9 4.2 5.8 6.9H78.5zm21.6 13.9h4.2v-34.1h-4.2v34.1zm27.1-4.1c-1.6.8-3.4 1.2-5.2 1.2-4.6 0-8.1-3.3-8.1-8.7 0-4.8 2.9-8.8 8.2-8.8 1.7-.1 3.4.3 4.9 1.1l1-3.3c-1.8-.8-3.8-1.2-5.8-1.2-7.6 0-12.5 5.2-12.5 12.3 0 7.1 4.6 11.9 11.6 11.9 2.3 0 4.6-.4 6.7-1.3l-.8-3.2zm15.2-19.7c-6.4 0-11.5 4.6-11.5 12.3 0 7.3 4.8 12 11.1 12 5.6 0 11.6-3.7 11.6-12.3 0-7.1-4.5-12-11.2-12zm-.1 3.2c5 0 6.9 5 6.9 8.9 0 5.2-3 9-7 9-4.1 0-7-3.8-7-8.9 0-4.4 2.2-9 7.1-9zm16.6 20.6h4.1v-14c0-3.2 2.4-5.9 5.6-6.3 3.2 0 4.8 2.7 4.8 6.4v13.9h4.1v-14.4c0-.7.1-1.4.3-2.1.7-2.2 2.7-3.7 5-3.8 3.4 0 5 2.7 5 7.2v13.2h4.1v-13.7c0-8.1-4.6-10.1-7.6-10.1-1.8-.1-3.7.5-5.1 1.6-1.1.8-1.9 1.8-2.6 3h-.1c-1-2.8-3.6-4.7-6.6-4.7-3-.1-5.9 1.6-7.3 4.3h-.1l-.2-3.7h-3.7c.1 1.9.2 3.9.2 6.3l.1 16.9z" class="gen-data-i-0"/><path d="M203.1 127.5h-7.4c-4.1 0-6.8-.7-6.8-6.1 0-1.9-.3-41.1-.3-42.8V65.2c0-2 .3-39.6.3-41.3 0-3.2 2.7-4.6 6.5-4.6h6.5c.7.1 1.3-.4 1.4-1.1v-4.1c.1-.7-.3-1.4-1.1-1.5h-.3c-2.4 0-7.8.5-24.2.5-16.7 0-25.6-.5-27.6-.5-.5 0-1 .3-1 .9v4.7c0 .9.3 1.2 1.4 1.2h8.9c4.8 0 6.5 1.7 7 5.8.2 2.2.5 32.9.5 37v11.9c0 9.2-.3 46-.7 48.4-.7 4.6-4.4 4.9-7.8 4.9h-6.8c-1 0-1.4.3-1.4 1v4.6c0 .9.3 1.2 1.4 1.2 1.7 0 9.2-.5 26.3-.5 16 0 22.9.5 24.9.5 1 0 1.7-.3 1.7-1.4v-4.3c-.2-.5-.8-1-1.4-1zM92.5 18.2c0 .9.3 1.2 1.4 1.2h8.9c4.8 0 6.5 1.7 7 5.8.2 2.2.5 31.4.5 36.6h21.9c.1-9.7.3-36.4.3-37.8 0-3.2 2.7-4.6 6.5-4.6h6.5c.7.1 1.3-.4 1.4-1.1v-4.1c.1-.7-.3-1.4-1.1-1.5h-.3c-2.4 0-7.8.5-24.2.5-16.7 0-25.6-.5-27.6-.5-.5 0-1 .3-1 .9v4.6zM46.2 19.4c4.8 0 6.5 1.7 7 5.8.2 2.2.5 31.4.5 36.6h21.9c.1-9.7.3-36.4.3-37.8 0-3.2 2.7-4.6 6.5-4.6h6.5c.7.1 1.3-.4 1.4-1.1v-4.1c.1-.7-.3-1.4-1.1-1.5h-.3c-2.4 0-7.8.5-24.2.5-16.7 0-25.6-.5-27.6-.5-.5 0-1 .3-1 .9v4.7c0 .9.3 1.2 1.4 1.2h8.7zM90 127.5h-7.4c-4.1 0-6.8-.7-6.8-6.1v-.5H53.1c0 .9-.1 1.5-.1 1.7-.7 4.6-4.4 4.9-7.8 4.9h-6.8c-1 0-1.4.3-1.4 1v4.6c0 .9.3 1.2 1.4 1.2 1.7 0 9.2-.5 26.3-.5 16 0 22.9.5 24.9.5 1 0 1.7-.3 1.7-1.4v-4.3c-.1-.6-.6-1.1-1.3-1.1zM146.5 127.5h-7.4c-4.1 0-6.8-.7-6.8-6.1v-.5h-22.8c0 .9-.1 1.5-.1 1.7-.7 4.6-4.4 4.9-7.8 4.9h-6.8c-1 0-1.4.3-1.4 1v4.6c0 .9.3 1.2 1.4 1.2 1.7 0 9.2-.5 26.3-.5 16 0 22.9.5 24.9.5 1 0 1.7-.3 1.7-1.4v-4.3c.1-.6-.5-1.1-1.2-1.1z" class="gen-data-i-1"/></svg>