<svg xmlns="http://www.w3.org/2000/svg" id="Layer_1" viewBox="0 0 63 57"><style>.gen-time-i-0{fill:#FFFFFF;} .gen-time-i-1{fill:#F9E220;}</style><path d="M23 35v-.5c0-.3.2-.8.6-1.4.5-.8 1.4-1.7 2.3-2.5.8-.8 1.6-1.4 2-1.8 2.1-2.1 2.1-4.3 2.1-4.4 0-1.9-1.6-3.5-3.5-3.5h-1c-1.9 0-3.5 1.6-3.5 3.5h1c0-1.4 1.1-2.5 2.5-2.5h1c1.4 0 2.5 1.1 2.5 2.5 0 0 0 1.8-1.9 3.6-.2.2-.7.6-1.2 1.1-.8.7-1.7 1.6-2.5 2.5-.4.5-.7.9-1 1.4-.3.5-.4 1-.4 1.5V36h8.5v-1H23zM40 20.5V28h-3.5c-1.4 0-2.5-1.1-2.5-2.5v-5h-1v5c0 1.9 1.6 3.5 3.5 3.5H40v7.5h1v-16h-1z" class="gen-time-i-0"/><path d="M62.9 28.3c-.1-.2-.3-.3-.4-.3H60C59.7 12.5 47.1 0 31.5 0 21.8 0 13.3 4.8 8.1 12.2l.8.6C13.9 5.7 22.2 1 31.5 1 39.1 1 46 4.1 50.9 9.1c5 5 8.1 11.8 8.1 19.4 0 .1.1.3.1.4.1.1.2.1.4.1h2l-6 8.6-6-8.6h2c.1 0 .3-.1.4-.1.1-.1.1-.2.1-.4C52 17.2 42.8 8 31.5 8c-8 0-14.9 4.6-18.3 11.3l.9.5C17.3 13.4 23.9 9 31.5 9c5.4 0 10.3 2.2 13.8 5.7 3.4 3.4 5.6 8.1 5.7 13.3h-2.5c-.2 0-.4.1-.4.3s-.1.4 0 .5l7 10c.1.1.2.2.4.2s.3-.1.4-.2l7-10c.1-.2.1-.4 0-.5zM54.1 44.2C49.1 51.3 40.8 56 31.5 56c-7.6 0-14.5-3.1-19.4-8.1C7.1 43 4 36.1 4 28.5c0-.1-.1-.3-.1-.4-.1 0-.3-.1-.4-.1h-2l6-8.6 6 8.6h-2c-.1 0-.3.1-.4.1-.1.1-.1.2-.1.4C11 39.8 20.2 49 31.5 49c8 0 14.9-4.6 18.3-11.3l-.9-.5C45.7 43.6 39.1 48 31.5 48c-5.4 0-10.3-2.2-13.8-5.7-3.4-3.4-5.6-8.1-5.7-13.3h2.5c.2 0 .4-.1.4-.3s.1-.4 0-.5l-7-10c-.1-.1-.2-.2-.4-.2s-.3.1-.4.2l-7 10c-.1.2-.1.4 0 .5s.2.3.4.3H3c.3 15.5 12.9 28 28.5 28 9.7 0 18.2-4.8 23.4-12.2l-.8-.6z" class="gen-time-i-1"/></svg>