<svg xmlns="http://www.w3.org/2000/svg" id="Layer_1" viewBox="0 0 64 63"><style>.serv-iaas-0{fill:none;stroke:#222829;stroke-linejoin:round;stroke-miterlimit:10;} .serv-iaas-1{fill:none;stroke:#222829;stroke-miterlimit:10;}</style><path d="M27 48.5l-4-4-4 4M45 48.5l-4-4-4 4M36 58.5l-4 4-4-4" class="serv-iaas-0"/><path d="M23 44.5v11H0M41 44.5v11h23M32 43.5v19" class="serv-iaas-0"/><circle cx="30" cy="14.5" r="7" class="serv-iaas-0"/><path d="M44 5.5c5 0 10 6 10 12 5 0 9 5.1 9 11 0 6.6-5.4 12-12 12H13c-6.6 0-12-5.4-12-12s5.4-12 12-12" class="serv-iaas-1"/><circle cx="30" cy="14.5" r="3" class="serv-iaas-0"/><path d="M25 35.5h-2M37 35.5h-2M33 35.5h-2M29 35.5h-2M41 35.5h-2" class="serv-iaas-0"/><path d="M41 14.5V14l2.8-1.9c-.2-1.3-1.2-3.7-1.2-3.7l-3.4.1c-.2-.3-.4-.5-.6-.8l1.1-3.2c-.9-.9-2-1.7-3.2-2.3l-2.7 2.1-.9-.3-1-3.3c-.6-.1-1.3-.2-2-.2s-1.3.1-2 .2l-1 3.3-.9.3-2.7-2.1c-1.2.6-2.2 1.4-3.2 2.3l1.1 3.2c-.2.3-.4.5-.6.8l-3.4-.1c-.6 1.2-1 2.4-1.2 3.7l3 1.9v1l-2.8 1.9c.2 1.3.6 2.6 1.2 3.7l3.4-.1c.2.3.4.5.6.8l-1.1 3.2c.9.9 2 1.7 3.2 2.3l2.7-2.1.9.3 1 3.3c.6.1 1.3.2 2 .2s1.3-.1 2-.2l1-3.3.9-.3 2.7 2.1c1.2-.6 2.2-1.4 3.2-2.3l-1.1-3.2c.2-.3.4-.5.6-.8l3.4.1c.6-1.2 1-2.4 1.2-3.7L41 15v-.5z" class="serv-iaas-1"/></svg>