<svg xmlns="http://www.w3.org/2000/svg" data-name="Layer 1" viewBox="0 0 25 25"><path fill="currentcolor" d="M12.5 2.3c3.3 0 3.7 0 5.1.1a12.43 12.43 0 0 1 2.3.4 3.39 3.39 0 0 1 1.4.9 4.19 4.19 0 0 1 .9 1.4 5.19 5.19 0 0 1 .4 2.3c.1 1.3.1 1.7.1 5.1s0 3.7-.1 5.1a12.43 12.43 0 0 1-.4 2.3 3.39 3.39 0 0 1-.9 1.4 4.19 4.19 0 0 1-1.4.9 5.19 5.19 0 0 1-2.3.4c-1.3.1-1.7.1-5.1.1s-3.7 0-5.1-.1a12.43 12.43 0 0 1-2.3-.4 3.39 3.39 0 0 1-1.4-.9 4.19 4.19 0 0 1-.9-1.4 5.19 5.19 0 0 1-.4-2.3c-.1-1.3-.1-1.7-.1-5.1s0-3.7.1-5.1a12.43 12.43 0 0 1 .4-2.3 3.39 3.39 0 0 1 .9-1.4 3.39 3.39 0 0 1 1.4-.9 5.19 5.19 0 0 1 2.3-.4c1.4-.1 1.8-.1 5.1-.1m0-2.3C9.1 0 8.7 0 7.3.1a6.39 6.39 0 0 0-3 .6A6 6 0 0 0 .7 4.3a6.39 6.39 0 0 0-.6 3C0 8.7 0 9.1 0 12.5s0 3.8.1 5.2a10.53 10.53 0 0 0 .6 3 6 6 0 0 0 3.6 3.6 10.53 10.53 0 0 0 3 .6c1.4.1 1.8.1 5.2.1s3.8 0 5.2-.1a10.53 10.53 0 0 0 3-.6 6 6 0 0 0 3.6-3.6 10.53 10.53 0 0 0 .6-3c.1-1.3.1-1.8.1-5.2s0-3.8-.1-5.2a10.53 10.53 0 0 0-.6-3A6 6 0 0 0 20.7.7a10.53 10.53 0 0 0-3-.6C16.3 0 15.9 0 12.5 0"/><path fill="currentcolor" d="M12.5 6.1a6.4 6.4 0 1 0 6.4 6.4 6.44 6.44 0 0 0-6.4-6.4m0 10.6a4.2 4.2 0 1 1 4.2-4.2 4.23 4.23 0 0 1-4.2 4.2m8.2-10.9a1.5 1.5 0 0 1-3 0 1.5 1.5 0 1 1 3 0"/></svg>