<svg xmlns="http://www.w3.org/2000/svg" data-name="Layer 1" viewBox="0 0 30 24"><path fill="currentcolor" d="M30 2.8a14 14 0 0 1-3.5 1A5.8 5.8 0 0 0 29.2.4a13.16 13.16 0 0 1-3.9 1.5A6.36 6.36 0 0 0 20.8 0a6.15 6.15 0 0 0-6.2 6.1 6.75 6.75 0 0 0 .2 1.4A17.67 17.67 0 0 1 2.1 1.1a6.21 6.21 0 0 0-.8 3.1 5.93 5.93 0 0 0 2.7 5 5.38 5.38 0 0 1-2.8-.8v.1a6 6 0 0 0 4.9 5.9 8.75 8.75 0 0 1-1.6.2 4.87 4.87 0 0 1-1.2-.1 6.16 6.16 0 0 0 5.8 4.2 12.68 12.68 0 0 1-7.6 2.6 7.57 7.57 0 0 1-1.5-.1A17 17 0 0 0 9.4 24 17.23 17.23 0 0 0 26.9 6.8V6A11.8 11.8 0 0 0 30 2.8z"/></svg>