<svg xmlns="http://www.w3.org/2000/svg" data-name="Layer 1" viewBox="0 0 40.18 22.74"><path fill="currentcolor" d="M39.8 20.6c0-.1-.1-.2-.1-.3a20.66 20.66 0 0 0-4-4.6A12.7 12.7 0 0 1 34 14a1.79 1.79 0 0 1-.3-1.7 20.59 20.59 0 0 1 1.9-2.7c.6-.7 1-1.3 1.4-1.8 2.4-3.2 3.4-5.2 3.1-6.1l-.1-.2a1.63 1.63 0 0 0-.6-.3 4.4 4.4 0 0 0-1.6-.2h-6.4a.44.44 0 0 0-.3.1l-.1.1v.1c-.1 0-.1.1-.2.2a.52.52 0 0 0-.2.4 51.2 51.2 0 0 1-2.2 4.7c-.5.9-1 1.6-1.4 2.2a9.77 9.77 0 0 1-1.1 1.4c-.3.3-.6.5-.8.7s-.4.3-.5.2-.2-.1-.4-.1a1.21 1.21 0 0 1-.5-.5 1.88 1.88 0 0 1-.2-.8c0-.3-.1-.6-.1-.8V5.3a6.62 6.62 0 0 1 .1-1.5V2.7a3.44 3.44 0 0 0-.1-.9 1.85 1.85 0 0 0-.2-.7 1 1 0 0 0-.4-.5 4.88 4.88 0 0 0-.7-.3 11.74 11.74 0 0 0-2.9-.3c-2.6 0-4.2.1-5 .5a5.55 5.55 0 0 0-.8.6c-.2.3-.3.5-.1.5a2.61 2.61 0 0 1 1.8.9l.1.3a4.05 4.05 0 0 1 .3 1 7.72 7.72 0 0 1 .2 1.5 11.22 11.22 0 0 1 0 2.6c-.1.7-.1 1.3-.2 1.7s-.2.7-.3 1a2.19 2.19 0 0 1-.3.5.1.1 0 0 1-.1.1 1.27 1.27 0 0 1-.6.1 1.33 1.33 0 0 1-.7-.3 6.47 6.47 0 0 1-.9-.8 10.44 10.44 0 0 1-1-1.4 14.51 14.51 0 0 1-1.2-2.2l-.3-.6c-.2-.4-.5-1-.9-1.7A15.46 15.46 0 0 0 8.5 2c-.2-.2-.3-.5-.5-.6l-.1-.1c-.1 0-.2-.1-.4-.2A4.33 4.33 0 0 0 7 1H1.3c-.6 0-1 .1-1.2.4v.2c-.1 0-.1.1-.1.3a1.49 1.49 0 0 0 .1.6 59.36 59.36 0 0 0 2.7 5.7 46.87 46.87 0 0 0 2.6 4.4c.7 1.1 1.5 2.2 2.2 3.1a15.34 15.34 0 0 0 1.5 1.9 1.7 1.7 0 0 0 .6.6l.5.5a12.76 12.76 0 0 0 1.5 1.2c.6.5 1.4.9 2.1 1.4a10.91 10.91 0 0 0 2.7 1.1 7.87 7.87 0 0 0 3 .3H22a1.29 1.29 0 0 0 1.1-.5l.1-.1c.1-.1.1-.2.2-.4s.1-.4.1-.6a8.08 8.08 0 0 1 .1-1.6 2.82 2.82 0 0 1 .4-1.1c.1-.2.3-.4.4-.6s.3-.3.4-.3.1-.1.2-.1a1.52 1.52 0 0 1 1.2.3 4.89 4.89 0 0 1 1.3 1.2c.4.5.9 1 1.4 1.6a8.09 8.09 0 0 0 1.5 1.3l.4.2a5.82 5.82 0 0 0 1.1.5 2.46 2.46 0 0 0 1.2.1l5.3-.1a2.13 2.13 0 0 0 1.2-.3c.3-.2.5-.4.5-.6a.85.85 0 0 0 0-.7.32.32 0 0 1-.3-.3z"/></svg>