<svg xmlns="http://www.w3.org/2000/svg" id="Layer_1" viewBox="0 0 40 22.8"><style>.soc-vk-i{fill:#FFFFFF;}</style><path d="M39.8 20.6c0-.1-.1-.2-.1-.3-.7-1.2-2-2.8-4-4.6-.9-.8-1.5-1.4-1.7-1.7-.4-.6-.5-1.1-.3-1.7.2-.4.8-1.3 1.9-2.7.6-.7 1-1.3 1.4-1.8 2.4-3.2 3.4-5.2 3.1-6.1l-.1-.2c-.1-.1-.3-.2-.6-.3-.6-.2-1-.2-1.6-.2h-6.4c-.2 0-.3.1-.3.1l-.1.1v.1c-.1 0-.1.1-.2.2s-.2.2-.2.4c-.7 1.7-1.4 3.2-2.2 4.7-.5.9-1 1.6-1.4 2.2-.4.6-.8 1.1-1.1 1.4-.3.3-.6.5-.8.7-.2.2-.4.3-.5.2-.1 0-.2-.1-.4-.1-.2-.1-.4-.3-.5-.5-.1-.2-.2-.5-.2-.8 0-.3-.1-.6-.1-.8v-1V7 5.3c0-.6 0-1.1.1-1.5V2.7s0-.7-.1-.9c0-.2-.1-.5-.2-.7-.1-.2-.2-.4-.4-.5-.2-.1-.4-.2-.7-.3-.8-.2-1.7-.3-2.9-.3-2.6 0-4.2.1-5 .5-.3.2-.6.4-.8.6-.2.3-.3.5-.1.5.8.1 1.4.4 1.8.9l.1.3c.1.2.2.5.3 1 .1.5.2 1 .2 1.5.1 1 .1 1.9 0 2.6-.1.7-.1 1.3-.2 1.7-.1.4-.2.7-.3 1-.1.2-.2.4-.3.5 0 .1-.1.1-.1.1-.2.1-.4.1-.6.1-.2 0-.4-.1-.7-.3-.3-.2-.6-.5-.9-.8-.3-.3-.6-.8-1-1.4-.4-.6-.8-1.3-1.2-2.2l-.3-.6c-.2-.4-.5-1-.9-1.7-.1-.8-.5-1.6-.7-2.3-.2-.2-.3-.5-.5-.6l-.1-.1c-.1 0-.2-.1-.4-.2-.1 0-.3-.1-.5-.1H1.3c-.6 0-1 .1-1.2.4v.2c-.1 0-.1.1-.1.3 0 .2 0 .3.1.6.8 2 1.7 3.8 2.7 5.7 1 1.8 1.8 3.3 2.6 4.4.7 1.1 1.5 2.2 2.2 3.1.7 1 1.2 1.6 1.5 1.9.2.3.4.5.6.6l.5.5c.3.3.8.7 1.5 1.2.6.5 1.4.9 2.1 1.4.8.5 1.7.8 2.7 1.1 1 .3 2.1.4 3 .3H22c.5 0 .9-.2 1.1-.5l.1-.1c.1-.1.1-.2.2-.4 0-.2.1-.4.1-.6 0-.6 0-1.1.1-1.6s.2-.8.4-1.1c.1-.2.3-.4.4-.6.2-.2.3-.3.4-.3.1 0 .1-.1.2-.1.3-.1.7 0 1.2.3s.9.7 1.3 1.2.9 1 1.4 1.6c.6.6 1 1 1.5 1.3l.4.2c.3.2.6.3 1.1.5.4.1.8.2 1.2.1l5.3-.1c.5 0 .9-.1 1.2-.3.3-.2.5-.4.5-.6.1-.2.1-.4 0-.7-.2 0-.3-.2-.3-.3z" class="soc-vk-i"/></svg>