<svg xmlns="http://www.w3.org/2000/svg" viewBox="0 0 524.41 113.39"><defs><style>.cls-logo-1{fill:#ffed00;}.cls-logo-2{fill:#1d1d1b;fill-rule:evenodd;}</style></defs><g id="Layer_2" data-name="Layer 2"><g id="_ÎÓÈ_1" data-name="—ÎÓÈ 1"><path d="M0 0h524.41v113.39H0z" class="cls-logo-1"/><path d="M262.23 50.82h-25.17c.22-4.36 3-12 12.85-12 7.52 0 10.89 4.14 12.31 12zm120.29 6.1c0 8.93-3.16 18-13.72 18s-13.62-9-13.62-18 3.16-18.08 13.62-18.08 13.72 9 13.72 18.08zM395.84 85h15.46V52.35c0-11 7.41-13 10.46-13 9.8 0 9.37 7.52 9.37 14.05V85h15.47V53.65c0-7.08 1.63-14.27 10.35-14.27s9.48 6.21 9.48 13.72V85h15.47V47.34c0-14.6-8.61-20.15-20.59-20.15a20.46 20.46 0 0 0-17 9.37c-3.05-6.75-9.37-9.37-16.45-9.37a20.34 20.34 0 0 0-17.21 9.15h-.22v-7.63h-14.59V44.5c-4.09-10.77-13.84-17.31-27.05-17.31-12.39 0-21.72 5.8-26.18 15.48-3.47-10.41-14-15.48-25.33-15.48-13.68 0-23 7.24-26.8 18.23V15.5H275v28c-4-9.49-12.23-16.27-24.66-16.27a28.06 28.06 0 0 0-20.85 8.6l2.74-7h-16l-15 38.45-.22.23-14.91-38.77h-16L192 85.05h18.39l11.21-28.93v.81c0 17.43 11 29.63 28.76 29.63 11.28 0 19.83-4.44 24.66-14.68V85h15.46V69c4 10.63 13.63 17.48 26.47 17.48 12.27 0 21.48-5.61 25.39-16 4.35 10 13.8 16 26.44 16 13.24 0 23-6.54 27.05-17.27V85zM275 60.63v7h-11.9c-1 3.49-6 7.3-12.2 7.3-8.61 0-13.4-4.47-13.84-14.27zm65.61-12.09a37.24 37.24 0 0 0-.92 8.39 38 38 0 0 0 .55 6.53h-11.1c-1 6.86-5.12 11.44-12.31 11.44-9.69 0-12.85-9.7-12.85-17.76 0-8.28 3.27-18.3 13.18-18.3 6.43 0 10.46 3.38 11.44 9.69z" class="cls-logo-2"/></g></g></svg>